<svg width="40" height="40" viewBox="0 0 40 40" fill="none" xmlns="http://www.w3.org/2000/svg">
<circle cx="20" cy="20" r="20" fill="#4ABC96"/>
<g clip-path="url(#clip0_2009_7274)">
<path d="M18.4421 22.4269C18.7814 21.8419 19.0981 21.2569 19.46 20.6948C20.6248 18.8824 22.0725 17.3338 23.6897 15.9458C25.4201 14.4546 27.3088 13.1928 29.3106 12.1031C29.4915 11.9998 29.6838 11.9425 29.8421 12.0916C29.9326 12.1834 30.0004 12.344 30.0004 12.4816C30.0004 12.5848 29.91 12.711 29.8308 12.7798C27.5576 14.7414 25.6576 17.0241 24.029 19.5592C22.2534 22.3352 20.9189 25.3062 20.1272 28.518C20.1159 28.5525 20.1046 28.5869 20.0933 28.6213C20.0594 28.8048 19.9576 28.931 19.7766 28.9769C19.5844 29.0228 19.4486 28.9425 19.3242 28.8048C18.7588 28.1854 18.2046 27.5774 17.6391 26.958C15.5016 24.6179 13.3641 22.2778 11.2266 19.9263C11.1927 19.8919 11.1588 19.8574 11.1248 19.8116C11.0004 19.6854 10.9665 19.5133 11.0344 19.3413C11.1135 19.1692 11.2605 19.0889 11.4415 19.0889C11.7695 19.0889 12.1088 19.0889 12.4367 19.0889C13.3867 19.0889 14.3254 19.0889 15.2754 19.0889C15.479 19.0889 15.6373 19.1577 15.773 19.3183C16.5986 20.2819 17.4242 21.2454 18.2498 22.209C18.3177 22.2778 18.3742 22.3581 18.4421 22.4269Z" fill="white"/>
</g>
<defs>
<clipPath id="clip0_2009_7274">
<rect width="19" height="17" fill="white" transform="translate(11 12)"/>
</clipPath>
</defs>
</svg>
