<svg width="18" height="21" viewBox="0 0 18 21" fill="none" xmlns="http://www.w3.org/2000/svg">
<g clip-path="url(#clip0_298_4522)">
<path d="M18 4.88C18 7.57 13.97 9.76 9 9.76C4.03 9.76 0 7.57 0 4.88C0 2.19 4.03 0 9 0C13.97 0 18 2.18 18 4.88Z" fill="white"/>
<path d="M9 11.2498C11.68 11.2498 14.19 10.6598 16.08 9.63977C16.77 9.26977 17.41 8.80977 17.98 8.25977C17.99 8.37977 18 8.49977 18 8.61977C18 11.3098 13.97 13.4998 9 13.4998C4.03 13.4998 0 11.3198 0 8.61977C0 8.49977 0.01 8.37977 0.03 8.25977C0.59 8.80977 1.23 9.27977 1.93 9.63977C3.81 10.6598 6.32 11.2498 9 11.2498Z" fill="white"/>
<path d="M9 14.9998C11.68 14.9998 14.19 14.4098 16.08 13.3898C16.77 13.0198 17.41 12.5598 17.98 12.0098C18 12.1298 18 12.2498 18 12.3798C18 15.0698 13.97 17.2598 9 17.2598C4.03 17.2598 0 15.0798 0 12.3798C0 12.2598 0.01 12.1298 0.03 12.0098C0.59 12.5598 1.23 13.0298 1.93 13.3898C3.81 14.4098 6.32 14.9998 9 14.9998Z" fill="white"/>
<path d="M9 18.75C11.68 18.75 14.19 18.16 16.08 17.14C16.77 16.77 17.41 16.31 17.98 15.76C17.99 15.88 18 16 18 16.12C18 18.82 13.97 21 9 21C4.03 21 0 18.82 0 16.12C0 16 0.01 15.87 0.03 15.75C0.59 16.3 1.23 16.77 1.93 17.13C3.81 18.16 6.32 18.75 9 18.75Z" fill="white"/>
</g>
<defs>
<clipPath id="clip0_298_4522">
<rect width="18" height="21" fill="white"/>
</clipPath>
</defs>
</svg>
