<svg width="23" height="19" viewBox="0 0 23 19" fill="none" xmlns="http://www.w3.org/2000/svg">
<g clip-path="url(#clip0_688_2543)">
<path fill-rule="evenodd" clip-rule="evenodd" d="M0 5.43624L4.63675 8.50778L18.0381 8.58932L23 5.49061L19.6497 1.84826L11.2102 0.475586L4.15612 1.84826L0 5.43624Z" fill="#86CAEF"/>
<path fill-rule="evenodd" clip-rule="evenodd" d="M18.0387 8.58969L23.0006 5.49098L19.6503 1.84863L16.6816 4.60757L18.0387 8.58969Z" fill="#52BCEB"/>
<path fill-rule="evenodd" clip-rule="evenodd" d="M4.63672 8.50743L18.0381 8.58897L16.681 4.60685L6.88441 4.51172L4.63672 8.50743Z" fill="#3AABE1"/>
<path fill-rule="evenodd" clip-rule="evenodd" d="M0 5.43662L4.63675 8.50815L6.88445 4.51244L4.15612 1.84863L0 5.43662Z" fill="#52BCEB"/>
<path fill-rule="evenodd" clip-rule="evenodd" d="M0 5.43652L11.917 19.0002L4.63675 8.50805L0 5.43652Z" fill="#2F85C7"/>
<path fill-rule="evenodd" clip-rule="evenodd" d="M18.0381 8.58936L4.63672 8.50781L11.917 18.9999L18.0381 8.58936Z" fill="#4392CF"/>
<path fill-rule="evenodd" clip-rule="evenodd" d="M23.0009 5.49023L18.0391 8.58895L11.918 18.9995L23.0009 5.49023Z" fill="#2F85C7"/>
<path fill-rule="evenodd" clip-rule="evenodd" d="M17.6134 0C17.6275 0.788269 17.6417 2.41917 18.2354 3.32976C18.504 3.73748 18.9846 3.88698 19.4653 3.92775C18.9422 3.96853 18.3768 4.25393 18.1082 4.70243C17.5568 5.61302 17.6275 7.09442 17.6134 7.85551C17.5993 6.89056 17.6558 5.51788 17.161 4.70243C16.8218 4.1588 16.1573 3.95494 15.3516 3.92775C16.1008 3.90057 16.7511 3.77825 17.0762 3.30258C17.6417 2.47353 17.5851 1.01931 17.6134 0Z" fill="#FEFEFE"/>
<path fill-rule="evenodd" clip-rule="evenodd" d="M7.12426 6.91797C7.1384 7.88292 7.16667 9.88077 7.90176 10.9952C8.2269 11.4981 8.8065 11.6884 9.41436 11.7427C8.77822 11.7971 8.08554 12.1504 7.74626 12.7077C7.06771 13.8085 7.1384 15.6297 7.1384 16.5675H7.12426C7.11012 15.3851 7.18081 13.6862 6.57294 12.6941C6.17712 12.0145 5.3572 11.7835 4.35352 11.7427C5.27238 11.7155 6.06403 11.566 6.47398 10.968C7.16667 9.97591 7.11012 8.16833 7.12426 6.91797Z" fill="#FEFEFE"/>
</g>
<defs>
<clipPath id="clip0_688_2543">
<rect width="23" height="19" fill="white"/>
</clipPath>
</defs>
</svg>
