<svg width="14" height="27" viewBox="0 0 14 27" fill="none" xmlns="http://www.w3.org/2000/svg">
<g clip-path="url(#clip0_298_4537)">
<path d="M12.4705 0C13.2905 0 13.9405 0.69 13.8805 1.51C13.8105 2.48 13.6705 3.45 13.5705 4.42C13.4005 6.09 13.2105 7.77 13.0305 9.44C12.8505 11.12 12.6605 12.8 12.4805 14.49C12.3005 16.18 12.1205 17.87 11.9305 19.58H1.95049C1.86049 18.75 1.77049 17.93 1.68049 17.1C1.48049 15.26 1.28049 13.41 1.08049 11.57C0.900487 9.9 0.730487 8.25 0.550487 6.59C0.370487 4.91 0.170487 3.23 0.0104874 1.54C0.0104874 1.53 0.0104874 1.53 0.0104874 1.52C-0.0695126 0.71 0.590487 0 1.41049 0H12.4705ZM6.95049 13.46C8.22049 13.45 9.26049 12.4 9.26049 11.14C9.26049 9.88 8.21049 8.83 6.94049 8.83C5.67049 8.83 4.60049 9.9 4.62049 11.17C4.64049 12.42 5.69049 13.47 6.95049 13.46Z" fill="#C6C6C6"/>
<path d="M4.09984 26.4002C3.72984 26.2502 3.32984 26.1502 2.99984 25.9402C2.36984 25.5202 2.05984 24.8802 2.03984 24.1202C2.01984 23.1602 2.02984 22.2002 2.02984 21.2402C2.02984 21.2202 2.03984 21.1902 2.04984 21.1602C5.29984 21.1602 8.54984 21.1602 11.8298 21.1602C11.8298 21.5702 11.8298 21.9702 11.8298 22.3802C11.8198 23.0402 11.8598 23.7102 11.7898 24.3602C11.6798 25.4302 10.9198 26.1902 9.85984 26.3702C9.82984 26.3802 9.79984 26.3902 9.76984 26.4102C7.88984 26.4002 5.99984 26.4002 4.09984 26.4002Z" fill="#C6C6C6"/>
</g>
<defs>
<clipPath id="clip0_298_4537">
<rect width="13.88" height="26.4" fill="white"/>
</clipPath>
</defs>
</svg>
