<svg width="18" height="18" viewBox="0 0 18 18" fill="none" xmlns="http://www.w3.org/2000/svg">
<path d="M7.03125 2.25044C6.65829 2.25044 6.3006 2.3986 6.03688 2.66232C5.77316 2.92604 5.625 3.28373 5.625 3.65669C5.625 4.02965 5.77316 4.38733 6.03688 4.65106C6.3006 4.91478 6.65829 5.06294 7.03125 5.06294H8.4375V8.43794H2.53125C2.15829 8.43794 1.8006 8.28978 1.53688 8.02606C1.27316 7.76233 1.125 7.40465 1.125 7.03169V6.46919C1.125 5.69219 1.755 5.06294 2.53125 5.06294H4.926C4.56136 4.52126 4.42016 3.85961 4.5319 3.21626C4.64364 2.57291 4.99968 1.99764 5.52562 1.61063C6.05156 1.22363 6.70671 1.05485 7.35417 1.13956C8.00164 1.22427 8.59132 1.55591 9 2.06519C9.40868 1.55591 9.99836 1.22427 10.6458 1.13956C11.2933 1.05485 11.9484 1.22363 12.4744 1.61063C13.0003 1.99764 13.3564 2.57291 13.4681 3.21626C13.5798 3.85961 13.4386 4.52126 13.074 5.06294H16.0312C16.8075 5.06294 17.4375 5.69294 17.4375 6.46919V7.03169C17.4375 7.80869 16.8075 8.43794 16.0312 8.43794H9.5625V5.06294H10.9688C11.2469 5.06294 11.5188 4.98046 11.75 4.82594C11.9813 4.67142 12.1615 4.4518 12.268 4.19484C12.3744 3.93788 12.4022 3.65513 12.348 3.38234C12.2937 3.10956 12.1598 2.85899 11.9631 2.66232C11.7665 2.46565 11.5159 2.33172 11.2431 2.27746C10.9703 2.2232 10.6876 2.25105 10.4306 2.35748C10.1736 2.46392 9.95402 2.64416 9.7995 2.87542C9.64497 3.10667 9.5625 3.37856 9.5625 3.65669V5.06294H8.4375V3.65669C8.4375 2.87969 7.8075 2.25044 7.03125 2.25044ZM8.4375 9.56294H2.25V14.6254C2.25 15.073 2.42779 15.5022 2.74426 15.8187C3.06072 16.1351 3.48995 16.3129 3.9375 16.3129H8.4375V9.56294ZM9.5625 9.56294V16.3129H14.625C15.0726 16.3129 15.5018 16.1351 15.8182 15.8187C16.1347 15.5022 16.3125 15.073 16.3125 14.6254V9.56294H9.5625Z" fill="white"/>
</svg>
