<svg width="29" height="30" viewBox="0 0 29 30" fill="none" xmlns="http://www.w3.org/2000/svg">
<g clip-path="url(#clip0_298_4530)">
<path d="M25.8586 14.4701C25.9386 18.0501 25.1586 21.0901 23.3586 23.8501C22.1086 25.7501 20.5186 27.2901 18.4186 28.2201C15.8986 29.3501 13.4286 29.1501 11.0586 27.8001C8.59857 26.4001 6.93857 24.2801 5.78857 21.7301C4.69857 19.3001 4.30857 16.7401 4.45857 14.0901C4.58857 11.9201 4.95857 9.81009 5.83857 7.81009C6.77857 5.67009 8.17857 3.93009 10.2686 2.81009C11.5186 2.14009 12.8586 1.80009 14.2586 1.70009C16.2986 1.56009 18.2586 1.85009 20.0686 2.84009C22.1286 3.96009 23.4986 5.68009 24.4286 7.78009C25.4286 10.0101 25.7986 12.3601 25.8586 14.4701ZM10.5186 16.9301C11.3886 16.9201 12.1886 16.6801 12.8386 16.0401C13.6486 15.2301 13.6386 14.0901 12.8386 13.2801C11.6486 12.0801 9.31857 12.1001 8.14857 13.3101C7.37857 14.1101 7.36857 15.2301 8.15857 16.0201C8.78857 16.6701 9.59857 16.9201 10.5186 16.9301ZM19.8786 16.9301C20.6686 16.9201 21.4386 16.7001 22.0686 16.1201C22.9786 15.3001 22.9886 14.0801 22.1086 13.2301C20.9286 12.1001 18.6986 12.1001 17.5286 13.2301C16.6386 14.0901 16.6686 15.3301 17.5986 16.1401C18.2386 16.7001 18.9886 16.9301 19.8786 16.9301ZM15.1486 24.4901C15.4286 24.4601 15.7086 24.4501 15.9786 24.4101C16.9086 24.2701 17.6986 23.8501 18.3586 23.1901C18.6186 22.9301 18.6586 22.6201 18.3986 22.4401C17.8086 22.0301 17.2086 21.6301 16.5786 21.2801C16.2086 21.0701 15.7886 21.0901 15.3886 21.3101C15.2786 21.3701 15.0886 21.3901 14.9786 21.3301C14.3986 21.0001 13.8486 21.1501 13.3386 21.4601C12.8986 21.7201 12.4786 22.0301 12.0586 22.3301C11.6586 22.6201 11.6386 22.8901 12.0086 23.2401C12.8786 24.0801 13.9286 24.4801 15.1486 24.4901ZM15.1486 18.9501C15.6586 18.9201 16.1186 18.7701 16.5286 18.4601C16.8786 18.2001 16.9586 17.9901 16.7886 17.7801C16.6386 17.5901 16.4486 17.6101 16.0886 17.8701C15.4486 18.3401 14.8586 18.3301 14.2086 17.8601C14.1486 17.8201 14.0986 17.7701 14.0386 17.7301C13.8586 17.6101 13.6786 17.6001 13.5386 17.7701C13.3886 17.9501 13.4186 18.1301 13.5886 18.2901C14.0286 18.7001 14.5586 18.9101 15.1486 18.9501Z" fill="#C6C6C6"/>
<path d="M28.0295 27.28C27.8495 27.5 27.7395 27.73 27.5595 27.81C27.0695 28.05 26.7395 28.39 26.4995 28.87C26.2595 29.36 25.6695 29.36 25.4295 28.87C25.1895 28.38 24.8595 28.05 24.3695 27.81C23.8795 27.57 23.8795 26.98 24.3695 26.74C24.8595 26.5 25.1895 26.17 25.4295 25.68C25.6695 25.19 26.2495 25.19 26.4995 25.68C26.7395 26.17 27.0695 26.51 27.5595 26.74C27.7395 26.84 27.8395 27.06 28.0295 27.28Z" fill="#C6C6C6"/>
<path d="M1.84931 7.62048C1.74931 7.54048 1.51931 7.44048 1.43931 7.26048C1.19931 6.76048 0.849307 6.42048 0.349307 6.18048C-0.120693 5.95048 -0.120693 5.36048 0.359307 5.13048C0.859307 4.89048 1.19931 4.54048 1.43931 4.05048C1.67931 3.58048 2.25931 3.58048 2.48931 4.06048C2.72931 4.56048 3.07931 4.90048 3.56931 5.14048C4.03931 5.36048 4.02931 5.90048 3.59931 6.18048C3.55931 6.20048 3.52931 6.23048 3.48931 6.24048C3.02931 6.41048 2.72931 6.74048 2.53931 7.19048C2.43931 7.43048 2.24931 7.59048 1.84931 7.62048Z" fill="#C6C6C6"/>
<path d="M6.30978 1.29C6.15978 1.45 6.06978 1.59 5.93978 1.66C5.65978 1.8 5.46978 2 5.31978 2.28C5.11978 2.66 4.76978 2.66 4.56978 2.28C4.42978 2 4.23978 1.8 3.95978 1.66C3.56978 1.46 3.56978 1.11 3.94978 0.91C4.23978 0.76 4.42978 0.55 4.57978 0.27C4.76978 -0.09 5.11978 -0.09 5.30978 0.27C5.45978 0.56 5.65978 0.76 5.94978 0.91C6.07978 0.98 6.15978 1.13 6.30978 1.29Z" fill="#C6C6C6"/>
<path d="M15.1602 22.3098C15.4802 22.3098 15.8002 22.2998 16.1202 22.3098C16.4002 22.3198 16.5902 22.4798 16.5702 22.7098C16.5502 22.9698 16.3802 23.0898 16.1302 23.0898C15.4802 23.0998 14.8302 23.0998 14.1902 23.0898C13.9402 23.0898 13.7802 22.9598 13.7602 22.6998C13.7502 22.4698 13.9302 22.3098 14.2102 22.2998C14.5202 22.2998 14.8402 22.3098 15.1602 22.3098Z" fill="#C6C6C6"/>
</g>
<defs>
<clipPath id="clip0_298_4530">
<rect width="28.03" height="29.25" fill="white"/>
</clipPath>
</defs>
</svg>
