<svg width="18" height="17" viewBox="0 0 18 17" fill="none" xmlns="http://www.w3.org/2000/svg">
<path fill-rule="evenodd" clip-rule="evenodd" d="M5.875 3.625C5.875 2.7962 6.20424 2.00134 6.79029 1.41529C7.37634 0.82924 8.1712 0.5 9 0.5C9.8288 0.5 10.6237 0.82924 11.2097 1.41529C11.7958 2.00134 12.125 2.7962 12.125 3.625C12.125 4.4538 11.7958 5.24866 11.2097 5.83471C10.6237 6.42076 9.8288 6.75 9 6.75C8.1712 6.75 7.37634 6.42076 6.79029 5.83471C6.20424 5.24866 5.875 4.4538 5.875 3.625ZM12.125 6.125C12.125 5.46196 12.3884 4.82607 12.8572 4.35723C13.3261 3.88839 13.962 3.625 14.625 3.625C15.288 3.625 15.9239 3.88839 16.3928 4.35723C16.8616 4.82607 17.125 5.46196 17.125 6.125C17.125 6.78804 16.8616 7.42393 16.3928 7.89277C15.9239 8.36161 15.288 8.625 14.625 8.625C13.962 8.625 13.3261 8.36161 12.8572 7.89277C12.3884 7.42393 12.125 6.78804 12.125 6.125ZM0.875 6.125C0.875 5.46196 1.13839 4.82607 1.60723 4.35723C2.07607 3.88839 2.71196 3.625 3.375 3.625C4.03804 3.625 4.67393 3.88839 5.14277 4.35723C5.61161 4.82607 5.875 5.46196 5.875 6.125C5.875 6.78804 5.61161 7.42393 5.14277 7.89277C4.67393 8.36161 4.03804 8.625 3.375 8.625C2.71196 8.625 2.07607 8.36161 1.60723 7.89277C1.13839 7.42393 0.875 6.78804 0.875 6.125ZM4.25833 10.5975C4.76662 9.80085 5.46757 9.14521 6.29635 8.6912C7.12513 8.23719 8.05501 7.99947 9 8C9.79152 7.99928 10.5743 8.16573 11.297 8.48847C12.0197 8.8112 12.6661 9.28295 13.1939 9.87281C13.7217 10.4627 14.119 11.1574 14.3597 11.9114C14.6004 12.6654 14.6792 13.4618 14.5908 14.2483C14.58 14.3461 14.5463 14.4398 14.4925 14.5221C14.4386 14.6043 14.3661 14.6727 14.2808 14.7217C12.6738 15.6438 10.8528 16.1277 9 16.125C7.07917 16.125 5.275 15.615 3.71917 14.7217C3.63391 14.6727 3.5614 14.6043 3.50754 14.5221C3.45367 14.4398 3.41997 14.3461 3.40917 14.2483C3.26921 12.9705 3.56872 11.6831 4.25833 10.5983V10.5975Z" fill="#6D6D6D"/>
<path d="M3.23507 9.87793C2.4132 11.1466 2.03028 12.6499 2.14507 14.1571C1.64466 14.0812 1.15249 13.9585 0.675067 13.7904L0.579234 13.7571C0.49373 13.7267 0.41886 13.6723 0.363691 13.6002C0.308522 13.5282 0.275423 13.4417 0.268401 13.3513L0.260067 13.2504C0.226405 12.8321 0.277364 12.4112 0.409904 12.013C0.542444 11.6147 0.753849 11.2473 1.0315 10.9325C1.30916 10.6178 1.64737 10.3622 2.02597 10.181C2.40456 9.99979 2.81577 9.89672 3.23507 9.87793ZM15.8551 14.1571C15.9699 12.6499 15.5869 11.1466 14.7651 9.87793C15.1844 9.89672 15.5956 9.99979 15.9742 10.181C16.3528 10.3622 16.691 10.6178 16.9686 10.9325C17.2463 11.2473 17.4577 11.6147 17.5902 12.013C17.7228 12.4112 17.7737 12.8321 17.7401 13.2504L17.7317 13.3513C17.7246 13.4416 17.6914 13.5279 17.6362 13.5997C17.5811 13.6716 17.5063 13.726 17.4209 13.7563L17.3251 13.7896C16.8526 13.9563 16.3617 14.0804 15.8551 14.1571Z" fill="#6D6D6D"/>
</svg>
