<svg width="16" height="16" viewBox="0 0 16 16" fill="none" xmlns="http://www.w3.org/2000/svg">
<g clip-path="url(#clip0_833_3958)">
<path fill-rule="evenodd" clip-rule="evenodd" d="M13.2678 2.73179C13.0356 2.49957 12.76 2.31536 12.4566 2.18969C12.1533 2.06401 11.8281 1.99932 11.4998 1.99932C11.1714 1.99932 10.8463 2.06401 10.5429 2.18969C10.2396 2.31536 9.96394 2.49957 9.73179 2.73179L6.73179 5.73179C6.44876 6.01456 6.23774 6.36114 6.11644 6.74239C5.99514 7.12365 5.96712 7.52844 6.03473 7.92277C6.10233 8.3171 6.26359 8.68945 6.50495 9.00853C6.74632 9.32761 7.06073 9.5841 7.42179 9.75645C7.53733 9.81599 7.62514 9.91819 7.66662 10.0414C7.70809 10.1646 7.69996 10.299 7.64396 10.4163C7.58796 10.5336 7.48848 10.6245 7.36661 10.6697C7.24474 10.7149 7.11006 10.7109 6.99112 10.6585C6.48586 10.4171 6.04588 10.058 5.70813 9.61144C5.37038 9.16483 5.14471 8.6437 5.05007 8.09181C4.95543 7.53992 4.99459 6.97338 5.16425 6.43976C5.33392 5.90614 5.62914 5.42102 6.02512 5.02512L9.02512 2.02512C9.34855 1.69321 9.73468 1.42884 10.1611 1.24734C10.5875 1.06585 11.0457 0.970844 11.5092 0.967847C11.9726 0.964849 12.432 1.05392 12.8607 1.22988C13.2895 1.40584 13.679 1.6652 14.0067 1.9929C14.3344 2.3206 14.5937 2.71011 14.7697 3.13885C14.9457 3.56758 15.0347 4.02698 15.0317 4.49041C15.0287 4.95384 14.9337 5.41206 14.7522 5.83847C14.5707 6.26489 14.3064 6.65102 13.9745 6.97445L12.8031 8.14579C12.7573 8.19491 12.7021 8.23431 12.6408 8.26164C12.5795 8.28897 12.5133 8.30366 12.4461 8.30485C12.379 8.30603 12.3123 8.29368 12.2501 8.26854C12.1878 8.24339 12.1312 8.20596 12.0838 8.15848C12.0363 8.111 11.9989 8.05444 11.9737 7.99219C11.9486 7.92993 11.9362 7.86324 11.9374 7.79611C11.9386 7.72897 11.9533 7.66276 11.9806 7.60143C12.0079 7.5401 12.0473 7.4849 12.0965 7.43912L13.2678 6.26779C13.5 6.03563 13.6842 5.76 13.8099 5.45665C13.9356 5.15329 14.0003 4.82815 14.0003 4.49979C14.0003 4.17143 13.9356 3.84628 13.8099 3.54293C13.6842 3.23957 13.5 2.96394 13.2678 2.73179ZM8.34179 5.57645C8.399 5.45686 8.50138 5.36488 8.62639 5.32075C8.75141 5.27662 8.88884 5.28395 9.00845 5.34112C9.51371 5.58247 9.95369 5.94153 10.2914 6.38814C10.6292 6.83475 10.8549 7.35587 10.9495 7.90776C11.0441 8.45965 11.005 9.02619 10.8353 9.55981C10.6657 10.0934 10.3704 10.5786 9.97445 10.9745L6.97445 13.9745C6.65102 14.3064 6.26489 14.5707 5.83847 14.7522C5.41206 14.9337 4.95384 15.0287 4.49041 15.0317C4.02698 15.0347 3.56758 14.9457 3.13885 14.7697C2.71011 14.5937 2.3206 14.3344 1.9929 14.0067C1.6652 13.679 1.40584 13.2895 1.22988 12.8607C1.05392 12.432 0.964849 11.9726 0.967847 11.5092C0.970844 11.0457 1.06585 10.5875 1.24734 10.1611C1.42884 9.73468 1.69321 9.34855 2.02512 9.02512L3.19645 7.85379C3.24223 7.80466 3.29743 7.76526 3.35876 7.73793C3.42009 7.71061 3.4863 7.69591 3.55344 7.69473C3.62057 7.69354 3.68726 7.70589 3.74952 7.73104C3.81178 7.75619 3.86833 7.79362 3.91581 7.84109C3.96329 7.88857 4.00072 7.94513 4.02587 8.00739C4.05102 8.06965 4.06337 8.13633 4.06218 8.20347C4.061 8.2706 4.0463 8.33681 4.01897 8.39815C3.99165 8.45948 3.95224 8.51468 3.90312 8.56045L2.73179 9.73179C2.49961 9.96396 2.31544 10.2396 2.18978 10.543C2.06413 10.8463 1.99946 11.1714 1.99946 11.4998C1.99946 11.8281 2.06413 12.1533 2.18978 12.4566C2.31544 12.76 2.49961 13.0356 2.73179 13.2678C2.96396 13.5 3.2396 13.6841 3.54295 13.8098C3.84631 13.9354 4.17144 14.0001 4.49979 14.0001C4.82814 14.0001 5.15327 13.9354 5.45662 13.8098C5.75998 13.6841 6.03561 13.5 6.26779 13.2678L9.26779 10.2678C9.55081 9.98501 9.76184 9.63844 9.88313 9.25718C10.0044 8.87593 10.0325 8.47113 9.96485 8.0768C9.89724 7.68247 9.73598 7.31012 9.49462 6.99105C9.25326 6.67197 8.93884 6.41547 8.57779 6.24312C8.51851 6.21485 8.46538 6.17518 8.42144 6.12637C8.3775 6.07757 8.3436 6.02058 8.32169 5.95867C8.29977 5.89677 8.29027 5.83115 8.29372 5.76556C8.29717 5.69998 8.3135 5.63572 8.34179 5.57645Z" fill="#7B7B7B"/>
</g>
<defs>
<clipPath id="clip0_833_3958">
<rect width="16" height="16" fill="white"/>
</clipPath>
</defs>
</svg>
