<svg width="15" height="16" viewBox="0 0 15 16" fill="none" xmlns="http://www.w3.org/2000/svg">
<path fill-rule="evenodd" clip-rule="evenodd" d="M7.3125 0.841797C3.27375 0.841797 0 4.11555 0 8.1543C0 12.193 3.27375 15.4668 7.3125 15.4668C11.3512 15.4668 14.625 12.193 14.625 8.1543C14.625 4.11555 11.3512 0.841797 7.3125 0.841797ZM7.875 5.9043C7.875 5.75511 7.81574 5.61204 7.71025 5.50655C7.60476 5.40106 7.46168 5.3418 7.3125 5.3418C7.16332 5.3418 7.02024 5.40106 6.91475 5.50655C6.80926 5.61204 6.75 5.75511 6.75 5.9043V7.5918H5.0625C4.91332 7.5918 4.77024 7.65106 4.66475 7.75655C4.55926 7.86204 4.5 8.00511 4.5 8.1543C4.5 8.30348 4.55926 8.44656 4.66475 8.55204C4.77024 8.65753 4.91332 8.7168 5.0625 8.7168H6.75V10.4043C6.75 10.5535 6.80926 10.6966 6.91475 10.802C7.02024 10.9075 7.16332 10.9668 7.3125 10.9668C7.46168 10.9668 7.60476 10.9075 7.71025 10.802C7.81574 10.6966 7.875 10.5535 7.875 10.4043V8.7168H9.5625C9.71168 8.7168 9.85476 8.65753 9.96025 8.55204C10.0657 8.44656 10.125 8.30348 10.125 8.1543C10.125 8.00511 10.0657 7.86204 9.96025 7.75655C9.85476 7.65106 9.71168 7.5918 9.5625 7.5918H7.875V5.9043Z" fill="#0487D9"/>
</svg>
