<svg width="30" height="30" viewBox="0 0 30 30" fill="none" xmlns="http://www.w3.org/2000/svg">
<path fill-rule="evenodd" clip-rule="evenodd" d="M0.374999 15C0.375 23.0775 6.9225 29.625 15 29.625C23.0775 29.625 29.625 23.0775 29.625 15C29.625 6.9225 23.0775 0.374999 15 0.374999C6.9225 0.375 0.374999 6.9225 0.374999 15ZM8.58 14.205C8.36932 14.4159 8.25099 14.7019 8.25099 15C8.25099 15.2981 8.36932 15.5841 8.58 15.795L13.08 20.295C13.183 20.4055 13.3072 20.4942 13.4452 20.5557C13.5832 20.6172 13.7322 20.6502 13.8832 20.6529C14.0343 20.6556 14.1843 20.6278 14.3244 20.5712C14.4645 20.5146 14.5917 20.4304 14.6986 20.3236C14.8054 20.2167 14.8896 20.0895 14.9462 19.9494C15.0028 19.8093 15.0306 19.6593 15.0279 19.5082C15.0252 19.3572 14.9922 19.2082 14.9307 19.0702C14.8692 18.9322 14.7805 18.808 14.67 18.705L12.09 16.125L20.625 16.125C20.9234 16.125 21.2095 16.0065 21.4205 15.7955C21.6315 15.5845 21.75 15.2984 21.75 15C21.75 14.7016 21.6315 14.4155 21.4205 14.2045C21.2095 13.9935 20.9234 13.875 20.625 13.875L12.09 13.875L14.67 11.295C14.7805 11.192 14.8692 11.0678 14.9307 10.9298C14.9922 10.7918 15.0252 10.6428 15.0279 10.4918C15.0306 10.3407 15.0028 10.1907 14.9462 10.0506C14.8896 9.91052 14.8054 9.78327 14.6986 9.67644C14.5917 9.56961 14.4645 9.4854 14.3244 9.42882C14.1843 9.37223 14.0343 9.34445 13.8832 9.34711C13.7322 9.34978 13.5832 9.38284 13.4452 9.44433C13.3072 9.50581 13.183 9.59447 13.08 9.705L8.58 14.205Z" fill="#D9D9D9"/>
</svg>
