<svg width="21" height="21" viewBox="0 0 21 21" fill="none" xmlns="http://www.w3.org/2000/svg">
<path fill-rule="evenodd" clip-rule="evenodd" d="M4.84615 0.339844C5.06037 0.339844 5.26581 0.421983 5.41728 0.568192C5.56875 0.714401 5.65385 0.912703 5.65385 1.11947V2.67874H15.3462V1.11947C15.3462 0.912703 15.4312 0.714401 15.5827 0.568192C15.7342 0.421983 15.9396 0.339844 16.1538 0.339844C16.3681 0.339844 16.5735 0.421983 16.725 0.568192C16.8764 0.714401 16.9615 0.912703 16.9615 1.11947V2.67874H17.7692C18.6261 2.67874 19.4478 3.00729 20.0537 3.59213C20.6596 4.17697 21 4.97017 21 5.79726V17.4917C21 18.3188 20.6596 19.112 20.0537 19.6968C19.4478 20.2817 18.6261 20.6102 17.7692 20.6102H3.23077C2.37392 20.6102 1.55216 20.2817 0.946271 19.6968C0.340384 19.112 0 18.3188 0 17.4917V5.79726C0 4.97017 0.340384 4.17697 0.946271 3.59213C1.55216 3.00729 2.37392 2.67874 3.23077 2.67874H4.03846V1.11947C4.03846 0.912703 4.12356 0.714401 4.27503 0.568192C4.4265 0.421983 4.63194 0.339844 4.84615 0.339844ZM19.3846 9.69541C19.3846 9.28187 19.2144 8.88526 18.9115 8.59285C18.6085 8.30043 18.1977 8.13615 17.7692 8.13615H3.23077C2.80234 8.13615 2.39146 8.30043 2.08852 8.59285C1.78558 8.88526 1.61538 9.28187 1.61538 9.69541V17.4917C1.61538 17.9053 1.78558 18.3019 2.08852 18.5943C2.39146 18.8867 2.80234 19.051 3.23077 19.051H17.7692C18.1977 19.051 18.6085 18.8867 18.9115 18.5943C19.2144 18.3019 19.3846 17.9053 19.3846 17.4917V9.69541Z" fill="#666666"/>
</svg>
