<svg width="22" height="16" viewBox="0 0 22 16" fill="none" xmlns="http://www.w3.org/2000/svg">
<path fill-rule="evenodd" clip-rule="evenodd" d="M0.5 2.125C0.5 1.089 1.34 0.25 2.375 0.25H8.375C9.411 0.25 10.25 1.09 10.25 2.125V5.875C10.25 6.911 9.41 7.75 8.375 7.75H2.375C1.87772 7.75 1.40081 7.55246 1.04917 7.20083C0.697544 6.8492 0.5 6.37228 0.5 5.875V2.125ZM12.5 3.625C12.5 2.589 13.34 1.75 14.375 1.75H19.625C20.66 1.75 21.5 2.59 21.5 3.625V11.875C21.5 12.91 20.66 13.75 19.625 13.75H14.375C13.8777 13.75 13.4008 13.5525 13.0492 13.2008C12.6975 12.8492 12.5 12.3723 12.5 11.875V3.625ZM2 11.125C2 10.089 2.84 9.25 3.875 9.25H9.125C10.161 9.25 11 10.09 11 11.125V13.375C11 14.41 10.16 15.25 9.125 15.25H3.875C3.37772 15.25 2.90081 15.0525 2.54917 14.7008C2.19754 14.3492 2 13.8723 2 13.375V11.125Z" fill="#666666"/>
</svg>
