<svg width="22" height="20" viewBox="0 0 22 20" fill="none" xmlns="http://www.w3.org/2000/svg">
<path fill-rule="evenodd" clip-rule="evenodd" d="M3.848 0.771002C6.21613 0.423402 8.60649 0.249272 11 0.250002C13.43 0.250002 15.817 0.428002 18.152 0.770002C20.13 1.062 21.5 2.794 21.5 4.74V10.76C21.5 12.706 20.13 14.438 18.152 14.73C16.9983 14.8991 15.8389 15.0268 14.676 15.113C14.6168 15.1169 14.5593 15.1342 14.5079 15.1637C14.4564 15.1931 14.4123 15.234 14.379 15.283L11.624 19.416C11.5555 19.5187 11.4627 19.6029 11.3539 19.6612C11.245 19.7194 11.1235 19.7499 11 19.7499C10.8765 19.7499 10.755 19.7194 10.6461 19.6612C10.5373 19.6029 10.4445 19.5187 10.376 19.416L7.621 15.283C7.58768 15.234 7.54361 15.1931 7.49214 15.1637C7.44068 15.1342 7.38317 15.1169 7.324 15.113C6.16113 15.0265 5.00172 14.8984 3.848 14.729C1.87 14.439 0.5 12.705 0.5 10.759V4.741C0.5 2.795 1.87 1.061 3.848 0.771002ZM5.75 6.25C5.75 6.05109 5.82902 5.86032 5.96967 5.71967C6.11032 5.57902 6.30109 5.5 6.5 5.5H15.5C15.6989 5.5 15.8897 5.57902 16.0303 5.71967C16.171 5.86032 16.25 6.05109 16.25 6.25C16.25 6.44891 16.171 6.63968 16.0303 6.78033C15.8897 6.92098 15.6989 7 15.5 7H6.5C6.30109 7 6.11032 6.92098 5.96967 6.78033C5.82902 6.63968 5.75 6.44891 5.75 6.25ZM6.5 8.5C6.30109 8.5 6.11032 8.57902 5.96967 8.71967C5.82902 8.86032 5.75 9.05109 5.75 9.25C5.75 9.44891 5.82902 9.63968 5.96967 9.78033C6.11032 9.92098 6.30109 10 6.5 10H11C11.1989 10 11.3897 9.92098 11.5303 9.78033C11.671 9.63968 11.75 9.44891 11.75 9.25C11.75 9.05109 11.671 8.86032 11.5303 8.71967C11.3897 8.57902 11.1989 8.5 11 8.5H6.5Z" fill="#3D92D1"/>
</svg>
