<svg width="20" height="20" viewBox="0 0 20 20" fill="none" xmlns="http://www.w3.org/2000/svg">
<path fill-rule="evenodd" clip-rule="evenodd" d="M3.25071 7C3.25071 5.20979 3.96186 3.4929 5.22773 2.22703C6.49361 0.961159 8.21049 0.25 10.0007 0.25C11.7909 0.25 13.5078 0.961159 14.7737 2.22703C16.0395 3.4929 16.7507 5.20979 16.7507 7V7.75C16.7507 9.873 17.5507 11.807 18.8687 13.27C18.9508 13.361 19.0094 13.4707 19.0392 13.5896C19.0691 13.7084 19.0694 13.8328 19.0401 13.9518C19.0108 14.0708 18.9528 14.1808 18.8711 14.2722C18.7895 14.3636 18.6867 14.4335 18.5717 14.476C17.0277 15.046 15.4117 15.466 13.7407 15.719C13.7783 16.2331 13.7095 16.7495 13.5386 17.2359C13.3677 17.7222 13.0984 18.1681 12.7474 18.5457C12.3964 18.9233 11.9714 19.2245 11.4988 19.4304C11.0262 19.6364 10.5162 19.7427 10.0007 19.7427C9.48519 19.7427 8.97521 19.6364 8.50262 19.4304C8.03002 19.2245 7.60497 18.9233 7.254 18.5457C6.90303 18.1681 6.63368 17.7222 6.46277 17.2359C6.29187 16.7495 6.22308 16.2331 6.26071 15.719C4.61236 15.4692 2.99369 15.0524 1.42971 14.475C1.31484 14.4326 1.2121 14.3627 1.13047 14.2715C1.04883 14.1802 0.990782 14.0703 0.961387 13.9515C0.931991 13.8326 0.932145 13.7084 0.961834 13.5896C0.991523 13.4708 1.04984 13.3611 1.13171 13.27C2.49851 11.7567 3.25378 9.78919 3.25071 7.75V7ZM7.75271 15.9C7.73991 16.2032 7.78858 16.5058 7.89579 16.7897C8.003 17.0736 8.16652 17.3329 8.37653 17.5519C8.58653 17.771 8.83868 17.9453 9.1178 18.0644C9.39692 18.1835 9.69725 18.2448 10.0007 18.2448C10.3042 18.2448 10.6045 18.1835 10.8836 18.0644C11.1627 17.9453 11.4149 17.771 11.6249 17.5519C11.8349 17.3329 11.9984 17.0736 12.1056 16.7897C12.2128 16.5058 12.2615 16.2032 12.2487 15.9C10.7531 16.0347 9.24834 16.0347 7.75271 15.9Z" fill="#3D92D1"/>
</svg>
