<svg width="34" height="7" viewBox="0 0 34 7" fill="none" xmlns="http://www.w3.org/2000/svg">
<g clip-path="url(#clip0_515_2700)">
<path d="M3.19 6.38C4.95179 6.38 6.38 4.95179 6.38 3.19C6.38 1.42821 4.95179 0 3.19 0C1.42821 0 0 1.42821 0 3.19C0 4.95179 1.42821 6.38 3.19 6.38Z" fill="#A3A3A3"/>
<path d="M16.8804 6.38C18.6422 6.38 20.0704 4.95179 20.0704 3.19C20.0704 1.42821 18.6422 0 16.8804 0C15.1186 0 13.6904 1.42821 13.6904 3.19C13.6904 4.95179 15.1186 6.38 16.8804 6.38Z" fill="#A3A3A3"/>
<path d="M30.5699 6.38C32.3317 6.38 33.7599 4.95179 33.7599 3.19C33.7599 1.42821 32.3317 0 30.5699 0C28.8081 0 27.3799 1.42821 27.3799 3.19C27.3799 4.95179 28.8081 6.38 30.5699 6.38Z" fill="#A3A3A3"/>
</g>
<defs>
<clipPath id="clip0_515_2700">
<rect width="33.77" height="6.39" fill="white"/>
</clipPath>
</defs>
</svg>
