<svg width="19" height="19" viewBox="0 0 19 19" fill="none" xmlns="http://www.w3.org/2000/svg">
<path d="M4.15625 5.04688C4.15625 4.18078 4.50031 3.35015 5.11273 2.73773C5.72515 2.12531 6.55578 1.78125 7.42188 1.78125C8.28797 1.78125 9.1186 2.12531 9.73102 2.73773C10.3434 3.35015 10.6875 4.18078 10.6875 5.04688C10.6875 5.91297 10.3434 6.7436 9.73102 7.35602C9.1186 7.96844 8.28797 8.3125 7.42188 8.3125C6.55578 8.3125 5.72515 7.96844 5.11273 7.35602C4.50031 6.7436 4.15625 5.91297 4.15625 5.04688ZM1.78125 15.1406C1.78125 13.6446 2.37553 12.2099 3.43335 11.1521C4.49117 10.0943 5.92589 9.5 7.42188 9.5C8.91786 9.5 10.3526 10.0943 11.4104 11.1521C12.4682 12.2099 13.0625 13.6446 13.0625 15.1406V15.143L13.0617 15.2372C13.06 15.3379 13.0328 15.4365 12.9825 15.5237C12.9322 15.611 12.8606 15.684 12.7743 15.736C11.1587 16.7089 9.30784 17.2216 7.42188 17.2188C5.46488 17.2188 3.63296 16.6773 2.07021 15.736C1.9838 15.6841 1.91201 15.6111 1.86159 15.5239C1.81118 15.4366 1.7838 15.338 1.78204 15.2372L1.78125 15.1406ZM14.8438 5.9375C14.8438 5.78003 14.7812 5.62901 14.6698 5.51766C14.5585 5.40631 14.4075 5.34375 14.25 5.34375C14.0925 5.34375 13.9415 5.40631 13.8302 5.51766C13.7188 5.62901 13.6562 5.78003 13.6562 5.9375V7.71875H11.875C11.7175 7.71875 11.5665 7.78131 11.4552 7.89266C11.3438 8.00401 11.2812 8.15503 11.2812 8.3125C11.2812 8.46997 11.3438 8.62099 11.4552 8.73234C11.5665 8.84369 11.7175 8.90625 11.875 8.90625H13.6562V10.6875C13.6562 10.845 13.7188 10.996 13.8302 11.1073C13.9415 11.2187 14.0925 11.2812 14.25 11.2812C14.4075 11.2812 14.5585 11.2187 14.6698 11.1073C14.7812 10.996 14.8438 10.845 14.8438 10.6875V8.90625H16.625C16.7825 8.90625 16.9335 8.84369 17.0448 8.73234C17.1562 8.62099 17.2188 8.46997 17.2188 8.3125C17.2188 8.15503 17.1562 8.00401 17.0448 7.89266C16.9335 7.78131 16.7825 7.71875 16.625 7.71875H14.8438V5.9375Z" fill="white"/>
</svg>
