<svg width="15" height="16" viewBox="0 0 15 16" fill="none" xmlns="http://www.w3.org/2000/svg">
<path d="M10.3125 4.51915C10.3125 4.04605 10.115 3.59234 9.76333 3.25781C9.41169 2.92329 8.93478 2.73535 8.4375 2.73535H3.75C3.25272 2.73535 2.77581 2.92329 2.42417 3.25781C2.07254 3.59234 1.875 4.04605 1.875 4.51915V8.97863C1.875 9.45173 2.07254 9.90544 2.42417 10.24C2.77581 10.5745 3.25272 10.7624 3.75 10.7624V7.19484C3.75 6.4852 4.04632 5.80463 4.57376 5.30284C5.10121 4.80105 5.81658 4.51915 6.5625 4.51915H10.3125Z" fill="#8F8F8F"/>
<path d="M11.25 5.41113C11.7473 5.41113 12.2242 5.59907 12.5758 5.93359C12.9275 6.26812 13.125 6.72184 13.125 7.19493V11.6544C13.125 12.1275 12.9275 12.5812 12.5758 12.9157C12.2242 13.2503 11.7473 13.4382 11.25 13.4382H6.5625C6.06522 13.4382 5.58831 13.2503 5.23667 12.9157C4.88504 12.5812 4.6875 12.1275 4.6875 11.6544V7.19493C4.6875 6.72184 4.88504 6.26812 5.23667 5.93359C5.58831 5.59907 6.06522 5.41113 6.5625 5.41113H11.25Z" fill="#8F8F8F"/>
</svg>
