<svg width="20" height="22" viewBox="0 0 20 22" fill="none" xmlns="http://www.w3.org/2000/svg">
<path d="M5.21669 9.90728C4.97455 9.47159 4.59459 9.12865 4.13646 8.93227C3.67832 8.73589 3.16794 8.69719 2.68544 8.82226C2.20293 8.94733 1.77562 9.22908 1.47057 9.62329C1.16552 10.0175 1 10.5018 1 11.0003C1 11.4987 1.16552 11.9831 1.47057 12.3773C1.77562 12.7715 2.20293 13.0532 2.68544 13.1783C3.16794 13.3034 3.67832 13.2647 4.13646 13.0683C4.59459 12.8719 4.97455 12.529 5.21669 12.0933M5.21669 9.90728C5.39669 10.2313 5.49969 10.6033 5.49969 11.0003C5.49969 11.3973 5.39669 11.7703 5.21669 12.0933M5.21669 9.90728L14.7827 4.59328M5.21669 12.0933L14.7827 17.4073M14.7827 4.59328C14.9229 4.85742 15.1144 5.09095 15.346 5.28021C15.5776 5.46947 15.8445 5.61068 16.1313 5.69556C16.4181 5.78044 16.7189 5.80731 17.0161 5.77458C17.3134 5.74185 17.6012 5.65018 17.8626 5.50494C18.124 5.35971 18.3539 5.1638 18.5387 4.9287C18.7236 4.69359 18.8597 4.42399 18.9391 4.13567C19.0185 3.84734 19.0397 3.54607 19.0013 3.24948C18.963 2.95288 18.8659 2.66691 18.7157 2.40828C18.4198 1.89862 17.9357 1.52542 17.3675 1.3689C16.7993 1.21237 16.1924 1.28503 15.6772 1.57124C15.162 1.85745 14.7797 2.33437 14.6124 2.89948C14.4452 3.46459 14.5063 4.07277 14.7827 4.59328ZM14.7827 17.4073C14.6392 17.6657 14.5479 17.9498 14.5142 18.2434C14.4804 18.537 14.5049 18.8345 14.5861 19.1186C14.6673 19.4028 14.8037 19.6683 14.9875 19.8997C15.1712 20.1312 15.3988 20.3242 15.6572 20.4678C15.9156 20.6113 16.1997 20.7026 16.4933 20.7363C16.787 20.77 17.0844 20.7456 17.3685 20.6644C17.6527 20.5832 17.9182 20.4468 18.1496 20.263C18.3811 20.0792 18.5742 19.8517 18.7177 19.5933C19.0076 19.0715 19.0783 18.4559 18.9143 17.8819C18.7503 17.308 18.365 16.8227 17.8432 16.5328C17.3214 16.2429 16.7058 16.1722 16.1318 16.3362C15.5579 16.5002 15.0726 16.8855 14.7827 17.4073Z" stroke="#4ABC96" stroke-width="1.5" stroke-linecap="round" stroke-linejoin="round"/>
</svg>
