<svg width="17" height="15" viewBox="0 0 17 15" fill="none" xmlns="http://www.w3.org/2000/svg">
<g clip-path="url(#clip0_93_278)">
<path d="M5.56037 14.6804C4.02037 14.6804 2.47037 14.6603 0.930372 14.6903C0.250372 14.7003 -0.0896279 14.1003 0.0203721 13.5803C0.470372 11.3103 2.25037 9.51035 4.51037 9.08035C7.33037 8.55035 10.1104 10.2404 10.9304 13.0003C10.9904 13.2003 11.0404 13.4103 11.0804 13.6203C11.1904 14.2104 10.8204 14.6704 10.2204 14.6704C8.67037 14.6804 7.12037 14.6804 5.56037 14.6804Z" fill="#A3A3A3"/>
<path d="M5.5502 7.7C3.4202 7.7 1.7002 5.98 1.7002 3.85C1.7102 1.72 3.4402 0 5.5602 0C7.68019 0 9.4102 1.73 9.4102 3.85C9.4002 5.98 7.6802 7.7 5.5502 7.7Z" fill="#A3A3A3"/>
<path d="M12.3902 8.98006C10.7302 8.97006 9.41016 7.64006 9.41016 5.98006C9.42016 4.31006 10.7602 2.99006 12.4302 3.00006C14.0802 3.01006 15.4002 4.37006 15.3902 6.03006C15.3802 7.66006 14.0302 8.99006 12.3902 8.98006Z" fill="#A3A3A3"/>
<path d="M12.0604 14.5397C11.9804 12.9397 11.4604 11.5297 10.4004 10.3197C10.9104 10.0597 11.4304 9.90974 11.9804 9.85974C14.2904 9.65974 16.2804 11.1497 16.7804 13.4197C16.9404 14.1297 16.4004 14.5597 15.8704 14.5497C14.6804 14.5197 13.4904 14.5397 12.3004 14.5397C12.2304 14.5397 12.1604 14.5397 12.0604 14.5397Z" fill="#A3A3A3"/>
</g>
<defs>
<clipPath id="clip0_93_278">
<rect width="16.81" height="14.69" fill="white"/>
</clipPath>
</defs>
</svg>
